<svg width="352" height="146" viewBox="0 0 352 146" fill="none" xmlns="http://www.w3.org/2000/svg">
<path d="M206.822 67.985H212.359V99.1H222.698V104H206.822V67.985ZM237.576 104.49C235.551 104.49 233.673 104.016 231.941 103.069C230.243 102.089 228.871 100.717 227.825 98.953C226.813 97.1563 226.306 95.0657 226.306 92.681C226.306 90.329 226.747 88.271 227.629 86.507C228.544 84.743 229.834 83.371 231.5 82.391C233.166 81.411 235.126 80.921 237.38 80.921C238.687 80.921 239.912 81.1497 241.055 81.607C242.199 82.0643 243.162 82.636 243.946 83.322C244.73 83.9753 245.253 84.6287 245.514 85.282L245.612 81.509H250.659V104H245.661L245.563 100.031C245.008 101.207 243.995 102.252 242.525 103.167C241.055 104.049 239.406 104.49 237.576 104.49ZM238.458 100.08C240.32 100.08 241.888 99.443 243.162 98.169C244.436 96.8623 245.073 95.1637 245.073 93.073V92.73C245.073 91.3253 244.779 90.0677 244.191 88.957C243.603 87.8463 242.803 86.9807 241.79 86.36C240.778 85.7393 239.667 85.429 238.458 85.429C236.368 85.429 234.751 86.115 233.607 87.487C232.464 88.8263 231.892 90.574 231.892 92.73C231.892 94.9187 232.448 96.699 233.558 98.071C234.702 99.4103 236.335 100.08 238.458 100.08ZM271.104 104.49C269.275 104.49 267.625 104.049 266.155 103.167C264.718 102.252 263.721 101.207 263.166 100.031L263.068 104H257.972V67.985H263.166V81.852L262.921 85.674C263.476 84.3673 264.554 83.2567 266.155 82.342C267.788 81.3947 269.552 80.921 271.447 80.921C273.668 80.921 275.596 81.4273 277.229 82.44C278.895 83.42 280.169 84.8083 281.051 86.605C281.933 88.369 282.374 90.427 282.374 92.779C282.374 95.1637 281.851 97.238 280.806 99.002C279.793 100.766 278.421 102.122 276.69 103.069C274.991 104.016 273.129 104.49 271.104 104.49ZM270.222 100.08C272.345 100.08 273.979 99.4103 275.122 98.071C276.265 96.699 276.837 94.935 276.837 92.779C276.837 90.5903 276.265 88.8263 275.122 87.487C274.011 86.115 272.378 85.429 270.222 85.429C268.36 85.429 266.792 86.0823 265.518 87.389C264.244 88.663 263.607 90.3453 263.607 92.436V92.779C263.607 94.1837 263.901 95.4413 264.489 96.552C265.11 97.6627 265.91 98.5283 266.89 99.149C267.903 99.7697 269.013 100.08 270.222 100.08Z" fill="black"/>
<path d="M0 0H196.5V123.152H90.0504L85.3004 114.108H188.5V8.5H8.588V96.4H24.624V104H0V0Z" fill="black"/>
<path d="M47.7007 104.76C44.5594 104.76 41.646 104.025 38.9607 102.556C36.326 101.036 34.198 98.908 32.5767 96.172C31.006 93.3853 30.2207 90.1427 30.2207 86.444C30.2207 82.796 30.9047 79.604 32.2727 76.868C33.6914 74.132 35.6927 72.004 38.2767 70.484C40.8607 68.964 43.9007 68.204 47.3967 68.204C49.4234 68.204 51.3234 68.5586 53.0967 69.268C54.87 69.9773 56.3647 70.864 57.5807 71.928C58.7967 72.9413 59.6074 73.9547 60.0127 74.968L60.1647 69.116H67.9926V104H60.2407L60.0887 97.844C59.2274 99.668 57.6567 101.289 55.3767 102.708C53.0967 104.076 50.538 104.76 47.7007 104.76ZM49.0687 97.92C51.9567 97.92 54.3887 96.932 56.3647 94.956C58.3407 92.9293 59.3287 90.2947 59.3287 87.052V86.52C59.3287 84.3413 58.8727 82.3907 57.9607 80.668C57.0487 78.9453 55.8074 77.6027 54.2367 76.64C52.666 75.6773 50.9434 75.196 49.0687 75.196C45.826 75.196 43.318 76.26 41.5447 78.388C39.7714 80.4653 38.8847 83.176 38.8847 86.52C38.8847 89.9147 39.746 92.676 41.4687 94.804C43.242 96.8813 45.7754 97.92 49.0687 97.92Z" fill="black"/>
<path d="M89.0624 105.064L74.6224 69.116H83.8944L91.3424 91.308L93.0144 96.704L94.6864 91.308L102.514 69.116H111.482L90.0504 123.152L85.3004 114.108L89.0624 105.064Z" fill="black"/>
<path d="M133.3 104.76C129.145 104.76 125.674 103.949 122.888 102.328C120.101 100.656 118.049 98.452 116.732 95.716C115.414 92.9293 114.756 89.8893 114.756 86.596C114.756 82.8973 115.516 79.6546 117.036 76.868C118.606 74.0813 120.76 71.9533 123.496 70.484C126.232 68.964 129.322 68.204 132.768 68.204C138.138 68.204 142.116 69.6986 144.7 72.688C147.334 75.6266 148.652 79.7813 148.652 85.152C148.652 86.52 148.576 87.9387 148.424 89.408H123.344C123.901 92.4987 124.99 94.728 126.612 96.096C128.284 97.464 130.589 98.148 133.528 98.148C135.96 98.148 137.961 97.9453 139.532 97.54C141.102 97.1346 142.546 96.5773 143.864 95.868L146.372 101.72C145.105 102.531 143.382 103.24 141.204 103.848C139.025 104.456 136.39 104.76 133.3 104.76ZM140.672 83.708C140.722 80.5666 140.038 78.3626 138.62 77.096C137.201 75.7786 135.174 75.12 132.54 75.12C127.22 75.12 124.154 77.9826 123.344 83.708H140.672Z" fill="black"/>
<path d="M157.029 69.116H165.237V75.956C166.048 73.6253 167.365 71.7507 169.189 70.332C171.013 68.9133 173.09 68.204 175.421 68.204C177.042 68.204 178.157 68.356 178.765 68.66L177.625 76.944C177.169 76.64 176.181 76.488 174.661 76.488C172.28 76.488 170.101 77.248 168.125 78.768C166.2 80.288 165.237 82.72 165.237 86.064V104H157.029V69.116Z" fill="black"/>
</svg>
