<?xml version="1.0" encoding="utf-8"?>
<svg width="350px" height="100px" viewBox="0 0 350 100" version="1.1" xmlns:xlink="http://www.w3.org/1999/xlink" xmlns="http://www.w3.org/2000/svg">
  <defs>
    <path d="M0 0L235.667 0L235.667 44.1875L0 44.1875L0 0Z" id="path_1" />
    <rect width="350" height="100" id="artboard_1" />
    <clipPath id="clip_1">
      <use xlink:href="#artboard_1" clip-rule="evenodd" />
    </clipPath>
    <clipPath id="mask_1">
      <use xlink:href="#path_1" />
    </clipPath>
  </defs>
  <g id="Artboard-3" clip-path="url(#clip_1)">
    <use xlink:href="#artboard_1" stroke="none" fill="#FFFFFF" fill-opacity="0" />
    <g id="cosmos-logo-black" transform="translate(57.448135 27.99997)" artboard="53331a4d-9cf1-4377-8d29-8f8cf9779dd9">
      <path d="M0 0L235.667 0L235.667 44.1875L0 44.1875L0 0Z" id="Background" fill="#FFFFFF" fill-opacity="0" fill-rule="evenodd" stroke="none" />
      <g clip-path="url(#mask_1)">
        <path d="M26.1852 31.9462L22.9531 28.6731C21.7255 29.8185 20.4846 30.7257 19.2293 31.3943C17.9751 32.0622 16.4748 32.3961 14.7293 32.3961C13.3653 32.3961 12.1039 32.1305 10.9447 31.5984C9.78551 31.0664 8.78305 30.3373 7.93736 29.4093C7.09168 28.4821 6.43754 27.3981 5.9733 26.1572C5.50963 24.9162 5.27833 23.586 5.27833 22.1686C5.27833 20.75 5.50963 19.4269 5.9733 18.1993C6.43754 16.9722 7.09168 15.902 7.93736 14.9879C8.78305 14.0744 9.78551 13.3518 10.9447 12.8197C12.1039 12.2882 13.3653 12.0221 14.7293 12.0221C16.3655 12.0221 17.825 12.3494 19.1067 13.0041C20.3891 13.6582 21.6029 14.5176 22.7478 15.5813L25.9804 11.8587C25.2987 11.2041 24.5761 10.6041 23.812 10.0582C23.0486 9.51282 22.2168 9.042 21.3164 8.64677C20.4161 8.25102 19.4275 7.94467 18.3499 7.72664C17.2724 7.50804 16.079 7.39875 14.7702 7.39875C12.5881 7.39875 10.5969 7.7879 8.79683 8.56509C6.99619 9.34226 5.44171 10.4059 4.13236 11.7561C2.82298 13.1062 1.80728 14.681 1.08415 16.4815C0.361014 18.2815 0 20.2046 0 22.2503C0 24.3229 0.36819 26.2594 1.10457 28.0598C1.84096 29.8593 2.85721 31.4208 4.15277 32.7439C5.44834 34.0665 6.98238 35.1097 8.75545 35.8736C10.5285 36.6374 12.4655 37.019 14.5654 37.019C15.9023 37.019 17.1228 36.903 18.2274 36.6713C19.332 36.4393 20.3482 36.0989 21.2756 35.649C22.203 35.1986 23.0691 34.6665 23.8739 34.0532C24.6783 33.4394 25.4488 32.7367 26.1852 31.9462L26.1852 31.9462ZM91.1066 15.5081C91.1066 14.5553 91.5135 13.7458 92.3277 13.0794C93.1413 12.412 94.2809 12.0788 95.7458 12.0788C97.0479 12.0788 98.3365 12.331 99.6113 12.8344C100.887 13.3377 102.175 14.0658 103.477 15.0179L106.163 11.2219C104.698 10.0516 103.132 9.16056 101.463 8.54872C99.794 7.93634 97.916 7.63013 95.827 7.63013C94.4165 7.63013 93.1143 7.82729 91.9275 8.22215C90.7337 8.61646 89.7172 9.18095 88.8689 9.91559C88.0213 10.6508 87.3564 11.5281 86.8683 12.5485C86.3868 13.569 86.1426 14.7051 86.1426 15.9569C86.1426 17.2902 86.3527 18.4197 86.7732 19.3449C87.1939 20.2701 87.8109 21.0593 88.6114 21.7124C89.4113 22.3656 90.4083 22.9097 91.588 23.3453C92.7751 23.7809 94.1251 24.1747 95.6507 24.5287C96.9805 24.8552 98.058 25.1682 98.8925 25.4672C99.7199 25.7668 100.371 26.0867 100.853 26.4264C101.327 26.7668 101.653 27.1408 101.829 27.5488C102.005 27.9576 102.093 28.4195 102.093 28.9366C102.093 30.053 101.639 30.9375 100.731 31.5899C99.8216 32.2438 98.594 32.5696 97.0479 32.5696C95.2577 32.5696 93.6568 32.2497 92.2465 31.6104C90.8355 30.9711 89.4387 30.053 88.0546 28.8551L85.0439 32.4474C86.753 33.9981 88.6114 35.1482 90.6187 35.8966C92.6262 36.645 94.7283 37.019 96.9255 37.019C98.4178 37.019 99.788 36.8285 101.036 36.4478C102.277 36.0662 103.348 35.5084 104.23 34.7737C105.118 34.0391 105.81 33.1413 106.312 32.0801C106.807 31.0189 107.058 29.8079 107.058 28.4471C107.058 27.2499 106.861 26.209 106.468 25.3245C106.074 24.4401 105.491 23.6652 104.732 22.9978C103.972 22.3314 103.009 21.7664 101.856 21.3038C100.704 20.8417 99.374 20.4199 97.882 20.0388C96.5188 19.7122 95.3999 19.3989 94.5115 19.0998C93.6299 18.8008 92.938 18.4742 92.4292 18.1201C91.9275 17.7666 91.582 17.3855 91.3915 16.9774C91.2021 16.5688 91.1066 16.0792 91.1066 15.5081L91.1066 15.5081ZM146.81 15.9124L146.81 36.3247L151.782 36.3247L151.782 7.86154L146.442 7.86154L137.762 21.3207L129.081 7.86154L123.743 7.86154L123.743 36.3247L128.714 36.3247L128.714 15.9936L137.639 29.3311L137.802 29.3311L146.81 15.9124L146.81 15.9124ZM193.554 22.2503C193.554 23.6413 193.316 24.9572 192.84 26.1986C192.363 27.4393 191.703 28.5164 190.859 29.4298C190.015 30.3432 189.001 31.0664 187.817 31.5984C186.632 32.1308 185.332 32.3961 183.917 32.3961C182.501 32.3961 181.194 32.1234 179.996 31.5782C178.798 31.0323 177.77 30.2958 176.913 29.3691C176.055 28.4413 175.388 27.3571 174.912 26.1162C174.436 24.8755 174.197 23.5591 174.197 22.1686C174.197 20.7771 174.436 19.4611 174.912 18.2203C175.388 16.9789 176.048 15.902 176.892 14.9879C177.737 14.0744 178.751 13.3518 179.935 12.8197C181.119 12.2882 182.419 12.0221 183.835 12.0221C185.251 12.0221 186.558 12.2948 187.755 12.8407C188.953 13.3861 189.981 14.1224 190.838 15.0497C191.696 15.9765 192.363 17.0611 192.84 18.302C193.316 19.5428 193.554 20.8593 193.554 22.2503L193.554 22.2503ZM198.822 22.1686C198.822 20.15 198.455 18.2407 197.719 16.4401C196.985 14.6407 195.964 13.072 194.657 11.7356C193.35 10.3988 191.785 9.34226 189.96 8.56509C188.136 7.7879 186.122 7.39875 183.917 7.39875C181.711 7.39875 179.697 7.79453 177.873 8.58551C176.048 9.37649 174.469 10.4468 173.135 11.7969C171.801 13.147 170.767 14.7224 170.032 16.5224C169.297 18.3224 168.929 20.2317 168.929 22.2503C168.929 24.2684 169.297 26.177 170.032 27.9776C170.767 29.778 171.788 31.3462 173.095 32.6827C174.401 34.0189 175.967 35.0759 177.791 35.8531C179.615 36.6303 181.629 37.019 183.835 37.019C186.04 37.019 188.055 36.6232 189.879 35.8329C191.703 35.0419 193.282 33.9715 194.616 32.6207C195.95 31.2712 196.985 29.6959 197.719 27.8959C198.455 26.096 198.822 24.1867 198.822 22.1686L198.822 22.1686ZM219.715 15.5081C219.715 14.5553 220.122 13.7458 220.936 13.0794C221.75 12.412 222.889 12.0788 224.354 12.0788C225.656 12.0788 226.945 12.331 228.22 12.8344C229.495 13.3377 230.783 14.0658 232.086 15.0179L234.771 11.2219C233.305 10.0516 231.74 9.16056 230.071 8.54872C228.403 7.93634 226.525 7.63013 224.436 7.63013C223.025 7.63013 221.723 7.82729 220.536 8.22215C219.343 8.61646 218.326 9.18095 217.478 9.91559C216.63 10.6508 215.965 11.5281 215.476 12.5485C214.995 13.569 214.751 14.7051 214.751 15.9569C214.751 17.2902 214.961 18.4197 215.382 19.3449C215.803 20.2701 216.42 21.0593 217.22 21.7124C218.02 22.3656 219.017 22.9097 220.197 23.3453C221.384 23.7809 222.734 24.1747 224.259 24.5287C225.588 24.8552 226.667 25.1682 227.501 25.4672C228.328 25.7668 228.98 26.0867 229.461 26.4264C229.936 26.7668 230.261 27.1408 230.438 27.5488C230.615 27.9576 230.702 28.4195 230.702 28.9366C230.702 30.053 230.247 30.9375 229.339 31.5899C228.43 32.2438 227.203 32.5696 225.656 32.5696C223.866 32.5696 222.265 32.2497 220.855 31.6104C219.445 30.9711 218.047 30.053 216.663 28.8551L213.653 32.4474C215.361 33.9981 217.22 35.1482 219.227 35.8966C221.234 36.645 223.337 37.019 225.534 37.019C227.026 37.019 228.396 36.8285 229.645 36.4478C230.884 36.0662 231.957 35.5084 232.838 34.7737C233.727 34.0391 234.419 33.1413 234.921 32.0801C235.416 31.0189 235.667 29.8079 235.667 28.4471C235.667 27.2499 235.469 26.209 235.077 25.3245C234.684 24.4401 234.099 23.6652 233.34 22.9978C232.58 22.3314 231.618 21.7664 230.465 21.3038C229.312 20.8417 227.982 20.4199 226.491 20.0388C225.127 19.7122 224.009 19.3989 223.12 19.0998C222.238 18.8008 221.547 18.4742 221.038 18.1201C220.536 17.7666 220.19 17.3855 220 16.9774C219.811 16.5688 219.715 16.0792 219.715 15.5081L219.715 15.5081ZM60.2913 13.5596L46.6682 27.1645C46.4926 26.8241 46.334 26.4695 46.192 26.1015C45.7163 24.8654 45.4784 23.5538 45.4784 22.1687C45.4784 20.7824 45.7163 19.4715 46.192 18.2353C46.6682 16.9986 47.328 15.9258 48.1715 15.0152C49.0152 14.1051 50.029 13.3853 51.2121 12.8552C52.3962 12.3256 53.6952 12.0606 55.1099 12.0606C56.525 12.0606 57.8311 12.3322 59.0276 12.8761C59.4727 13.0779 59.8938 13.3055 60.2913 13.5596L60.2913 13.5596ZM59.0893 31.563C57.9054 32.093 56.6065 32.3577 55.1918 32.3577C53.7766 32.3577 52.4706 32.0859 51.2734 31.5428C50.829 31.3402 50.4078 31.1126 50.0108 30.8581L63.6332 17.2543C63.809 17.5941 63.9676 17.9483 64.1096 18.3167C64.5853 19.5528 64.8233 20.8643 64.8233 22.2501C64.8233 23.6357 64.5853 24.9466 64.1096 26.1834C63.6332 27.4195 62.9736 28.4924 62.1299 29.4024C61.2864 30.3126 60.2731 31.033 59.0893 31.563L59.0893 31.563ZM61.1504 35.7813C62.9736 34.9933 64.5517 33.927 65.8849 32.5814C67.2179 31.2369 68.2515 29.6675 68.9861 27.8743C69.7212 26.0812 70.0885 24.1791 70.0885 22.1687C70.0885 20.1577 69.7212 18.2557 68.9861 16.4619C68.5507 15.3984 68.0142 14.4163 67.3776 13.515L76.2382 4.66674L72.7174 1.15072L63.83 10.026C63.0321 9.48269 62.1658 9.01308 61.2319 8.61661C59.4087 7.84237 57.3954 7.45469 55.1918 7.45469C52.9875 7.45469 50.9744 7.84895 49.1512 8.63696C47.328 9.42495 45.7497 10.4912 44.4167 11.8362C43.0835 13.1813 42.0495 14.7506 41.3148 16.5439C40.5802 18.337 40.2129 20.2391 40.2129 22.2501C40.2129 24.2606 40.5802 26.162 41.3148 27.9557C41.751 29.0197 42.2872 30.0019 42.9238 30.9036L34.0639 39.751L37.5847 43.2669L46.4717 34.3922C47.2696 34.9355 48.1358 35.4052 49.0698 35.8015C50.8929 36.5757 52.906 36.9631 55.1099 36.9631C57.3139 36.9631 59.3272 36.5686 61.1504 35.7813L61.1504 35.7813Z" id="wordmarklight" fill="#000000" fill-rule="evenodd" stroke="none" />
      </g>
    </g>
  </g>
</svg>