<?xml version="1.0" encoding="utf-8"?>
<svg width="350px" height="100px" viewBox="0 0 350 100" version="1.1" xmlns:xlink="http://www.w3.org/1999/xlink" xmlns="http://www.w3.org/2000/svg">
  <defs>
    <path d="M0 0L202.735 0L202.735 57.8636L0 57.8636L0 0Z" id="path_1" />
    <rect width="350" height="100" id="artboard_1" />
    <clipPath id="clip_1">
      <use xlink:href="#artboard_1" clip-rule="evenodd" />
    </clipPath>
    <clipPath id="mask_1">
      <use xlink:href="#path_1" />
    </clipPath>
  </defs>
  <g id="Artboard-5" clip-path="url(#clip_1)">
    <use xlink:href="#artboard_1" stroke="none" fill="#FFFFFF" fill-opacity="0" />
    <g id="Google-flutter-logo" transform="translate(74.26474 21.430237)" artboard="f7e13a72-c98b-439c-bb72-6ff70add3dc7">
      <path d="M0 0L202.735 0L202.735 57.8636L0 57.8636L0 0Z" id="Background" fill="#FFFFFF" fill-opacity="0" fill-rule="evenodd" stroke="none" />
      <g clip-path="url(#mask_1)">
        <path d="M28.9914 0.870073L46.3653 0.850926L17.2165 29.9848L9.61982 37.539L0.976446 28.885L28.9914 0.870073L28.9914 0.870073ZM28.8297 26.8832C29.0552 26.5854 29.47 26.7321 29.7849 26.6938L46.3504 26.6981L31.2527 41.7809L22.5647 33.1461L28.8297 26.8832L28.8297 26.8832Z" id="Shape" fill="#44D1FD" fill-rule="evenodd" stroke="none" />
        <path d="M70.785 13.0214L89.7247 13.0278L89.7226 16.757C84.768 16.757 79.8113 16.7422 74.8546 16.7634C74.476 16.8889 74.6547 17.3633 74.6121 17.6548L74.627 27.6852C74.7525 28.0617 75.229 27.8809 75.5226 27.9277L88.2356 27.9213L88.2356 31.6463C84.283 31.6442 80.3325 31.6442 76.3799 31.6463C75.7928 31.6442 75.1993 31.608 74.6185 31.708L74.5738 45.8675C73.2996 45.8165 72.0274 45.8633 70.7531 45.8356L70.751 13.6235L70.785 13.0214L70.785 13.0214ZM94.3176 13.0278L98.2064 13.0278L98.2086 35.3138L98.166 45.808C96.9002 45.7846 95.6345 45.7782 94.3708 45.8122C94.273 45.2932 94.3134 44.7656 94.3134 44.2422L94.3176 13.0278L94.3176 13.0278ZM132.38 15.7913L136.282 15.7934L136.288 22.3881C138.196 22.4349 140.115 22.303 142.019 22.4541C141.966 23.6369 142.01 24.8197 141.989 26.0025C140.092 26.0067 138.196 26.0216 136.301 25.994L136.286 39.1282C136.326 40.345 136.586 41.815 137.769 42.4425C139.119 43.2105 140.779 42.8489 142.057 42.1085L142.057 45.9292C140.649 46.5675 139.043 46.644 137.53 46.4377C135.399 46.1122 133.356 44.6592 132.712 42.5468C132.284 41.3895 132.382 40.1408 132.374 38.9324L132.365 26.1407L132.269 26.0323C130.923 25.9599 129.572 26.0429 128.223 25.9961C128.232 24.792 128.176 23.5879 128.253 22.386C129.623 22.3626 130.999 22.4477 132.367 22.3435L132.38 15.7913L132.38 15.7913ZM148.863 15.7785C150.16 15.8231 151.458 15.7636 152.753 15.8082L152.843 15.9061C152.892 18.0717 152.777 20.2437 152.894 22.4051C154.743 22.3711 156.591 22.3987 158.438 22.3881L158.45 25.9748C156.591 26.045 154.726 26.0025 152.866 25.9918L152.845 39.3536C152.843 40.5173 153.179 41.8937 154.304 42.4659C155.685 43.219 157.359 42.8318 158.642 42.0617L158.638 45.9037C157.27 46.5206 155.728 46.6398 154.251 46.4696C152.334 46.2143 150.458 45.1315 149.558 43.3764C149.124 42.4574 148.882 41.4406 148.841 40.4258L148.841 26.0067C147.495 26.0046 146.15 26.011 144.806 26.0067L144.814 22.3753C146.14 22.4115 147.465 22.3647 148.79 22.4094C148.931 20.2055 148.78 17.9866 148.863 15.7785L148.863 15.7785ZM167.8 22.5115C170.493 21.3946 173.601 21.3734 176.352 22.3094C179.503 23.3965 181.941 26.145 182.834 29.3339C183.419 31.1017 183.396 32.9801 183.313 34.8181L164.794 34.8373C164.947 36.8093 165.537 38.8197 166.907 40.3003C168.853 42.5702 172.204 43.4126 175.033 42.5212C177.018 41.9362 178.567 40.4088 179.586 38.6537C180.713 39.1579 181.809 39.7323 182.932 40.2492C181.396 43.1765 178.603 45.5016 175.32 46.1313C172.625 46.6355 169.676 46.6483 167.205 45.3166C163.996 43.7232 161.788 40.479 161.159 36.9902C160.701 34.3097 160.844 31.474 161.852 28.9297C162.909 26.1365 165.047 23.7177 167.8 22.5115M169.266 25.8748C167 26.9215 165.541 29.2467 165.086 31.6463L179.288 31.6016C179.062 30.0338 178.505 28.4404 177.356 27.3065C175.344 25.1494 171.904 24.7282 169.266 25.8748L169.266 25.8748ZM191.743 26.1833C193.226 22.5817 197.781 20.6905 201.382 22.1988L201.382 26.4024C199.87 25.8067 198.174 25.4387 196.577 25.9088C194.394 26.5577 192.779 28.5042 192.16 30.6464C191.735 32.093 191.894 33.6034 191.911 35.0862C191.745 37.005 191.994 38.926 191.869 40.8449C191.971 42.5021 191.78 44.1593 191.92 45.8186C190.597 45.8824 189.274 45.8143 187.952 45.859C187.876 40.8577 187.942 35.8542 187.921 30.8507L187.95 22.4285C189.191 22.4626 190.433 22.4243 191.675 22.4541C191.788 23.6964 191.537 24.9452 191.743 26.1833L191.743 26.1833ZM103.784 22.3817C105.103 22.437 106.433 22.303 107.745 22.4519L107.726 36.3945C107.714 38.0985 107.956 39.9599 109.135 41.2831C110.656 42.968 113.232 43.2764 115.312 42.6106C118.093 41.615 120.033 38.6708 119.92 35.7265L119.963 22.3817L123.934 22.3902L123.911 45.8016C122.652 45.7803 121.394 45.8016 120.137 45.7867L120.122 42.4553C119.308 43.4785 118.452 44.5145 117.284 45.1591C114.893 46.6674 111.86 46.8674 109.181 46.0952C107.454 45.574 105.95 44.3635 105.084 42.7808C104.057 41.0406 103.797 38.9835 103.738 37.0008L103.784 22.3817L103.784 22.3817Z" id="Shape" fill="#000000" fill-opacity="0.54" fill-rule="evenodd" stroke="none" />
        <path d="M13.9043 41.7958L22.5647 33.1461L31.2527 41.7809L31.2889 41.8192L22.5668 50.4605L13.9043 41.7958L13.9043 41.7958Z" id="Shape" fill="#1FBCFD" stroke="none" />
        <path d="M22.5668 50.4605L31.2889 41.8192L46.3568 56.9021C40.6811 56.9148 35.0075 56.8978 29.3339 56.9106C29.0105 56.9829 28.8105 56.6872 28.6042 56.5042L22.5668 50.4605L22.5668 50.4605Z" id="Shape" fill="#08589C" stroke="none" />
      </g>
    </g>
  </g>
</svg>