<?xml version="1.0" encoding="utf-8"?>
<svg width="350px" height="100px" viewBox="0 0 350 100" version="1.1" xmlns:xlink="http://www.w3.org/1999/xlink" xmlns="http://www.w3.org/2000/svg">
  <defs>
    <path d="M0 0.025284L151.4 0.025284L151.4 56.5607L0 56.5607L0 0.025284Z" id="path_1" />
    <rect width="350" height="100" id="artboard_1" />
    <clipPath id="clip_1">
      <use xlink:href="#artboard_1" clip-rule="evenodd" />
    </clipPath>
    <clipPath id="mask_1">
      <use xlink:href="#path_1" />
    </clipPath>
  </defs>
  <g id="Artboard-7" clip-path="url(#clip_1)">
    <use xlink:href="#artboard_1" stroke="none" fill="#FFFFFF" fill-opacity="0" />
    <g id="Go_Logo_Blue" transform="translate(99.51506 21.854492)" artboard="b7c5e560-bfbd-4a7e-a318-b6b7e18e6507">
      <path d="M0 0.025284L151.4 0.025284L151.4 56.5607L0 56.5607L0 0.025284Z" id="Background" fill="#FFFFFF" fill-opacity="0" fill-rule="evenodd" stroke="none" />
      <g clip-path="url(#mask_1)">
        <path d="M11.425 17.126C11.1302 17.126 11.0565 16.9785 11.2039 16.7574L12.7518 14.7672C12.8992 14.5461 13.2678 14.3987 13.5626 14.3987L39.877 14.3987C40.1719 14.3987 40.2456 14.6198 40.0982 14.8409L38.8451 16.7574C38.6977 16.9785 38.3291 17.1997 38.108 17.1997L11.425 17.126L11.425 17.126ZM0.294839 23.9073C2.19672e-08 23.9073 -0.0737098 23.7599 0.0737099 23.5387L1.62162 21.5486C1.76904 21.3274 2.13759 21.18 2.43242 21.18L36.0441 21.18C36.339 21.18 36.4864 21.4012 36.4127 21.6223L35.823 23.3913C35.7493 23.6862 35.4544 23.8336 35.1596 23.8336L0.294839 23.9073L0.294839 23.9073ZM18.1326 30.6886C17.8378 30.6886 17.7641 30.4674 17.9115 30.2463L18.9434 28.4036C19.0908 28.1824 19.3857 27.9613 19.6805 27.9613L34.4225 27.9613C34.7173 27.9613 34.8647 28.1824 34.8647 28.4773L34.7173 30.2463C34.7173 30.5411 34.4225 30.7623 34.2014 30.7623L18.1326 30.6886L18.1326 30.6886ZM94.6434 15.7992C89.9997 16.9786 86.8302 17.8631 82.2602 19.0424C81.1545 19.3373 81.0808 19.411 80.1226 18.3053C79.0169 17.0523 78.2061 16.2415 76.6582 15.5044C72.0145 13.2194 67.5182 13.8828 63.3167 16.61C58.3045 19.8532 55.7246 24.6444 55.7983 30.6149C55.8721 36.5117 59.9261 41.3765 65.7492 42.1873C70.7614 42.8507 74.9629 41.0817 78.2798 37.3225C78.9432 36.5117 79.5329 35.6272 80.27 34.5952C77.6165 34.5952 74.2995 34.5952 66.044 34.5952C64.4961 34.5952 64.1275 33.637 64.6435 32.3839C65.6017 30.0989 67.3708 26.266 68.4027 24.3495C68.6239 23.9073 69.1398 23.1702 70.2455 23.1702C74.0047 23.1702 87.8621 23.1702 97.0758 23.1702C96.9284 25.1604 96.9284 27.1505 96.6336 29.1407C95.8228 34.4478 93.8326 39.3126 90.5894 43.5878C85.2823 50.5902 78.3535 54.9391 69.5821 56.1185C62.3585 57.0767 55.6509 55.6762 49.7541 51.2536C44.2996 47.1259 41.2038 41.6714 40.393 34.89C39.4347 26.8557 41.7935 19.6321 46.6583 13.2931C51.8917 6.43806 58.8204 2.08918 67.2971 0.541271C74.2258 -0.711796 80.8597 0.099012 86.8302 4.15305C90.7368 6.7329 93.5378 10.271 95.3805 14.5461C95.8228 15.2095 95.528 15.5781 94.6434 15.7992L94.6434 15.7992ZM119.041 56.5607C112.334 56.4133 106.216 54.4968 101.056 50.0742C96.7073 46.315 93.98 41.5239 93.0955 35.8482C91.7687 27.519 94.0538 20.1481 99.066 13.5879C104.447 6.51174 110.933 2.82625 119.705 1.27834C127.223 -0.0484383 134.299 0.68866 140.712 5.03754C146.535 9.01787 150.147 14.3987 151.105 21.4748C152.358 31.4257 149.484 39.5337 142.629 46.4625C137.764 51.401 131.793 54.4968 124.938 55.8973C122.948 56.2659 120.958 56.3396 119.041 56.5607L119.041 56.5607ZM136.584 26.7819C136.511 25.8237 136.511 25.0866 136.363 24.3495C135.036 17.0522 128.329 12.9245 121.326 14.5461C114.471 16.094 110.049 20.4429 108.427 27.3716C107.1 33.121 109.901 38.9441 115.208 41.3028C119.263 43.0718 123.317 42.8507 127.223 40.8605C133.046 37.8384 136.216 33.121 136.584 26.7819L136.584 26.7819Z" id="Group" fill="#00ACD7" fill-rule="evenodd" stroke="none" />
      </g>
    </g>
  </g>
</svg>