<?xml version="1.0" encoding="utf-8"?>
<svg width="350px" height="100px" viewBox="0 0 350 100" version="1.1" xmlns:xlink="http://www.w3.org/1999/xlink" xmlns="http://www.w3.org/2000/svg">
  <defs>
    <path d="M0 0L248 0L248 248L0 248L0 0Z" id="path_1" />
    <rect width="350" height="100" id="artboard_1" />
    <clipPath id="clip_1">
      <use xlink:href="#artboard_1" clip-rule="evenodd" />
    </clipPath>
    <clipPath id="mask_1">
      <use xlink:href="#path_1" />
    </clipPath>
  </defs>
  <g id="Artboard" clip-path="url(#clip_1)">
    <use xlink:href="#artboard_1" stroke="none" fill="#FFFFFF" fill-opacity="0" />
    <g id="polkadot-logo-vector-2022" transform="translate(51.000015 -74)" artboard="e3f9371d-9e1a-4ff8-a808-182a749e5792">
      <path d="M0 0L248 0L248 248L0 248L0 0Z" id="Background" fill="#FFFFFF" fill-opacity="0" fill-rule="evenodd" stroke="none" />
      <g clip-path="url(#mask_1)">
        <path d="M84.5178 106.921C81.8552 106.921 79.2687 107.264 78.2037 107.53C76.6822 107.948 76.3018 108.633 75.9975 110.002L69.9877 137.96C69.8736 138.53 69.7975 139.025 69.7975 139.481C69.7975 140.85 70.7104 141.763 72.1939 141.763C73.8295 141.763 74.4761 140.698 74.8184 139.101L76.5301 131.151C77.7092 131.303 79.3067 131.455 81.5509 131.455C91.4405 131.455 97.5644 126.13 97.5644 118.066C97.5264 110.953 92.6196 106.921 84.5178 106.921L84.5178 106.921ZM81.2847 126.853C79.7632 126.853 78.546 126.815 77.481 126.663L80.6761 111.828C81.665 111.676 83.1485 111.486 84.6699 111.486C89.919 111.486 92.5816 113.958 92.5816 118.066C92.5816 123.315 88.7779 126.853 81.2847 126.853L81.2847 126.853L81.2847 126.853ZM239.898 132.558C239.099 132.558 238.567 133.053 237.578 134.118C235.828 135.944 234.725 136.933 233.318 136.933C232.063 136.933 231.416 135.944 231.416 134.308C231.416 133.395 231.606 132.292 231.834 131.113L233.584 122.821L238.871 122.821C240.545 122.821 241.534 121.87 241.534 120.158C241.534 119.207 240.925 118.485 239.48 118.485L234.497 118.485L235.372 114.605C235.486 114.034 235.562 113.502 235.562 113.045C235.562 111.714 234.649 110.763 233.166 110.763C231.606 110.763 230.883 111.828 230.541 113.426L229.438 118.485L227.194 118.485C225.482 118.485 224.493 119.436 224.493 121.147C224.493 122.098 225.178 122.821 226.585 122.821L228.525 122.821L226.775 131.037C226.585 131.95 226.357 133.433 226.357 134.955C226.357 138.834 228.373 141.649 232.671 141.649C235.144 141.649 237.35 140.394 239.023 138.91C240.659 137.465 241.838 135.715 241.838 134.574C241.876 133.471 241.001 132.558 239.898 132.558L239.898 132.558ZM130.2 109.736C130.2 108.367 129.249 107.454 127.766 107.454C126.206 107.454 125.483 108.519 125.141 110.117L119.169 137.807C119.017 138.378 118.941 138.872 118.941 139.329C118.941 140.698 119.892 141.611 121.337 141.611C122.973 141.611 123.658 140.546 124 138.948L129.972 111.258C130.048 110.687 130.2 110.193 130.2 109.736L130.2 109.736ZM215.326 118.028C207.681 118.028 202.508 125.598 202.508 132.825C202.508 132.977 202.508 133.091 202.508 133.243C201.329 135.069 199.769 136.933 198.742 136.933C197.982 136.933 197.677 136.21 197.677 135.107C197.677 133.775 198.058 131.531 198.476 129.591L202.432 111.258C202.546 110.687 202.622 110.193 202.622 109.736C202.622 108.367 201.709 107.454 200.226 107.454C198.59 107.454 197.944 108.519 197.601 110.117L195.471 120.044C194.33 118.865 192.656 118.028 190.146 118.028C185.087 118.028 179.99 121.946 178.012 127.918C175.806 133.585 173.866 136.933 172.307 136.933C171.736 136.933 171.394 136.438 171.394 135.639C171.394 133.243 172.725 127.423 173.296 124.609C173.486 123.544 173.6 123.125 173.6 122.517C173.6 120.425 170.101 117.952 165.574 117.952C160.325 117.952 155.571 121.261 153.212 126.206C149.675 132.444 146.442 136.933 144.844 136.933C144.121 136.933 143.893 136.02 143.703 135.183L142.524 128.602L149.827 122.631C150.512 122.06 151.348 121.261 151.348 120.196C151.348 118.903 150.474 118.066 149.218 118.066C148.267 118.066 147.469 118.637 146.632 119.321L135.677 128.374L139.367 111.296C139.481 110.725 139.595 110.231 139.595 109.774C139.595 108.405 138.644 107.492 137.161 107.492C135.601 107.492 134.879 108.557 134.536 110.155L128.564 137.845C128.412 138.416 128.336 138.91 128.336 139.367C128.336 140.736 129.287 141.649 130.733 141.649C132.368 141.649 133.053 140.584 133.395 138.987L134.156 135.411L138.644 131.798L139.747 137.313C140.166 139.519 141.307 141.649 144.274 141.649C147.202 141.649 149.523 138.948 151.843 135.335C152.528 139.139 155.266 141.649 158.994 141.649C162.759 141.649 165.346 139.405 167.02 136.4L167.02 136.514C167.02 139.633 168.579 141.649 171.356 141.649C173.866 141.649 175.92 140.128 177.784 136.933C178.849 139.709 181.207 141.649 184.478 141.649C188.358 141.649 191.097 139.329 192.885 136.058L192.885 136.362C192.885 139.785 194.596 141.649 197.411 141.649C199.883 141.649 202.013 140.204 203.801 137.845C205.171 140.204 207.643 141.649 210.952 141.649C218.597 141.649 223.771 134.08 223.771 126.815C223.733 121.68 220.652 118.028 215.326 118.028L215.326 118.028ZM167.78 127.728C166.411 133.699 163.444 137.085 160.097 137.085C157.853 137.085 156.598 135.373 156.598 132.787C156.598 127.728 160.287 122.288 165.194 122.288C166.677 122.288 167.818 122.707 168.807 123.353L167.78 127.728L167.78 127.728ZM194.368 125.179C192.847 132.178 189.347 137.047 185.544 137.047C183.452 137.047 182.196 135.411 182.196 132.748C182.196 127.652 185.734 122.364 190.45 122.364C192.276 122.364 193.645 122.973 194.634 123.81L194.368 125.179L194.368 125.179ZM211.485 137.047C208.708 137.047 207.567 135.031 207.567 132.52C207.567 127.88 210.762 122.593 214.756 122.593C217.533 122.593 218.674 124.609 218.674 127.119C218.674 131.798 215.479 137.047 211.485 137.047L211.485 137.047ZM109.432 118.028C101.787 118.028 96.6135 125.598 96.6135 132.825C96.6135 137.96 99.7325 141.649 105.02 141.649C112.665 141.649 117.838 134.08 117.838 126.815C117.8 121.68 114.719 118.028 109.432 118.028L109.432 118.028ZM105.552 137.047C102.775 137.047 101.634 135.031 101.634 132.52C101.634 127.88 104.829 122.593 108.823 122.593C111.6 122.593 112.741 124.609 112.741 127.119C112.741 131.798 109.546 137.047 105.552 137.047L105.552 137.047Z" id="Shape" fill="#000000" fill-rule="evenodd" stroke="none" />
        <path d="M36.5914 99.6184C41.4601 99.6184 45.3779 101.901 45.3779 104.753C45.3779 107.568 41.4221 109.888 36.5914 109.888C31.7607 109.888 27.8049 107.606 27.8049 104.753C27.8049 101.939 31.7227 99.6184 36.5914 99.6184L36.5914 99.6184ZM36.5914 138.188C41.4601 138.188 45.3779 140.47 45.3779 143.323C45.3779 146.175 41.4221 148.458 36.5914 148.458C31.7607 148.458 27.8049 146.175 27.8049 143.323C27.8049 140.47 31.7227 138.188 36.5914 138.188L36.5914 138.188ZM15.4429 111.828C17.8773 107.606 21.8331 105.362 24.2675 106.769C26.7018 108.177 26.7399 112.741 24.3055 116.963C21.8712 121.185 17.9153 123.429 15.481 122.022C13.0466 120.615 13.0086 116.05 15.4429 111.828L15.4429 111.828ZM48.8393 131.113C51.2736 126.891 55.2294 124.647 57.6638 126.054C60.0981 127.461 60.1362 132.026 57.7018 136.248C55.2675 140.47 51.3116 142.714 48.8773 141.307C46.4429 139.899 46.4429 135.335 48.8393 131.113L48.8393 131.113ZM15.481 126.054C17.9153 124.647 21.8712 126.891 24.3055 131.113C26.7399 135.335 26.7018 139.899 24.2675 141.307C21.8331 142.714 17.8773 140.47 15.4429 136.248C13.0086 132.026 13.0466 127.461 15.481 126.054L15.481 126.054ZM48.8773 106.769C51.3116 105.362 55.2675 107.606 57.7018 111.828C60.1362 116.05 60.1362 120.615 57.6638 122.022C55.2294 123.429 51.2736 121.185 48.8393 116.963C46.4429 112.741 46.4429 108.177 48.8773 106.769L48.8773 106.769Z" id="Shape" fill="#E6007A" fill-rule="evenodd" stroke="none" />
      </g>
    </g>
  </g>
</svg>