<?xml version="1.0" encoding="utf-8"?>
<svg width="350px" height="100px" viewBox="0 0 350 100" version="1.1" xmlns:xlink="http://www.w3.org/1999/xlink" xmlns="http://www.w3.org/2000/svg">
  <defs>
    <path d="M0 0L229.969 0L229.969 48.098L0 48.098L0 0Z" id="path_1" />
    <rect width="350" height="100" id="artboard_1" />
    <clipPath id="clip_1">
      <use xlink:href="#artboard_1" clip-rule="evenodd" />
    </clipPath>
    <clipPath id="mask_1">
      <use xlink:href="#path_1" />
    </clipPath>
  </defs>
  <g id="Artboard-2" clip-path="url(#clip_1)">
    <use xlink:href="#artboard_1" stroke="none" fill="#FFFFFF" fill-opacity="0" />
    <g id="polygon-logo.99647ca" transform="translate(60.031326 26.1512)" artboard="401f52c2-88db-4292-940d-a4789491dab8">
      <path d="M0 0L229.969 0L229.969 48.098L0 48.098L0 0Z" id="Background" fill="#FFFFFF" fill-opacity="0" fill-rule="evenodd" stroke="none" />
      <g clip-path="url(#mask_1)">
        <path d="M40.5203 14.6938C39.5297 14.0837 38.2417 14.0837 37.152 14.6938L29.4243 19.3713L24.1735 22.4219L16.4459 27.0996C15.4552 27.7097 14.1673 27.7097 13.0775 27.0996L6.93503 23.4389C5.94431 22.8288 5.2508 21.7102 5.2508 20.4899L5.2508 13.2702C5.2508 12.0499 5.84523 10.9314 6.93503 10.3212L12.9784 6.76219C13.9691 6.15207 15.257 6.15207 16.3469 6.76219L22.3902 10.3212C23.3809 10.9314 24.0744 12.0499 24.0744 13.2702L24.0744 17.9478L29.3252 14.7955L29.3252 10.1179C29.3252 8.89762 28.7309 7.77907 27.641 7.16895L16.4459 0.457593C15.4552 -0.152531 14.1673 -0.152531 13.0775 0.457593L1.68423 7.16895C0.594431 7.77907 0 8.89762 0 10.1179L0 23.6423C0 24.8625 0.594431 25.981 1.68423 26.5911L13.0775 33.3025C14.0682 33.9127 15.3562 33.9127 16.4459 33.3025L24.1735 28.7265L29.4243 25.5743L37.152 20.9984C38.1426 20.3883 39.4306 20.3883 40.5203 20.9984L46.5637 24.5575C47.5545 25.1676 48.248 26.2862 48.248 27.5064L48.248 34.7262C48.248 35.9464 47.6536 37.0649 46.5637 37.675L40.5203 41.3359C39.5297 41.946 38.2417 41.946 37.152 41.3359L31.1086 37.7768C30.1178 37.1667 29.4243 36.0481 29.4243 34.8278L29.4243 30.1502L24.1735 33.3025L24.1735 37.9801C24.1735 39.2003 24.7679 40.3189 25.8578 40.929L37.251 47.6405C38.2417 48.2506 39.5297 48.2506 40.6194 47.6405L52.0127 40.929C53.0034 40.3189 53.6969 39.2003 53.6969 37.9801L53.6969 24.4557C53.6969 23.2356 53.1025 22.117 52.0127 21.5069L40.5203 14.6938L40.5203 14.6938Z" id="Shape" fill="#7950DD" stroke="none" />
        <path d="M74.6152 43.7729L74.6152 32.5451C75.8234 34.0782 78.0159 34.9349 80.5666 34.9349C87.0549 34.9349 91.4402 30.2905 91.4402 23.2111C91.4402 16.1316 87.4129 11.4872 81.1035 11.4872C78.1949 11.4872 75.9576 12.5694 74.6152 14.328L74.6152 11.8479L68.3952 11.8479L68.3952 43.7729L74.6152 43.7729L74.6152 43.7729ZM79.8059 29.5239C76.4499 29.5239 74.2572 26.9988 74.2572 23.2111C74.2572 19.3783 76.4499 16.8531 79.8059 16.8531C83.0723 16.8531 85.3098 19.3783 85.3098 23.2111C85.3098 26.9988 83.0723 29.5239 79.8059 29.5239L79.8059 29.5239Z" id="Shape" fill="#000000" fill-rule="evenodd" stroke="none" />
        <path d="M105.564 34.9349C112.5 34.9349 117.467 29.9748 117.467 23.2111C117.467 16.4473 112.5 11.4872 105.564 11.4872C98.6282 11.4872 93.6611 16.4473 93.6611 23.2111C93.6611 29.9748 98.6282 34.9349 105.564 34.9349L105.564 34.9349ZM105.564 29.5239C102.208 29.5239 99.9258 26.9537 99.9258 23.2111C99.9258 19.4233 102.208 16.8531 105.564 16.8531C108.92 16.8531 111.202 19.4233 111.202 23.2111C111.202 26.9537 108.92 29.5239 105.564 29.5239L105.564 29.5239Z" id="Shape" fill="#000000" fill-rule="evenodd" stroke="none" />
        <path d="M127.447 34.5742L127.447 1.97277L121.227 1.97277L121.227 34.5742L127.447 34.5742L127.447 34.5742Z" id="Shape" fill="#000000" stroke="none" />
        <path d="M146.144 11.8479L141.445 26.5028L136.702 11.8479L130.348 11.8479L138.537 34.3939L135.226 43.773L141.177 43.773L144.354 34.484L152.543 11.8479L146.144 11.8479L146.144 11.8479Z" id="Shape" fill="#000000" stroke="none" />
        <path d="M170.011 14.1025C168.758 12.5243 166.521 11.4872 163.792 11.4872C157.213 11.4872 153.231 16.1316 153.231 23.2111C153.231 30.2905 157.213 34.9349 163.88 34.9349C166.521 34.9349 168.892 33.9429 170.057 32.2745L170.057 35.2506C170.057 37.3699 168.669 38.8579 166.789 38.8579L156.407 38.8579L156.407 43.7729L167.773 43.7729C172.875 43.7729 176.276 40.6616 176.276 35.927L176.276 11.8479L170.011 11.8479L170.011 14.1025L170.011 14.1025ZM164.865 29.5239C161.554 29.5239 159.361 27.0439 159.361 23.2111C159.361 19.3783 161.554 16.8531 164.865 16.8531C168.221 16.8531 170.414 19.3783 170.414 23.2111C170.414 27.0439 168.221 29.5239 164.865 29.5239L164.865 29.5239Z" id="Shape" fill="#000000" fill-rule="evenodd" stroke="none" />
        <path d="M191.956 34.9349C198.893 34.9349 203.859 29.9748 203.859 23.2111C203.859 16.4473 198.893 11.4872 191.956 11.4872C185.021 11.4872 180.053 16.4473 180.053 23.2111C180.053 29.9748 185.021 34.9349 191.956 34.9349L191.956 34.9349ZM191.956 29.5239C188.6 29.5239 186.318 26.9537 186.318 23.2111C186.318 19.4233 188.6 16.8531 191.956 16.8531C195.313 16.8531 197.594 19.4233 197.594 23.2111C197.594 26.9537 195.313 29.5239 191.956 29.5239L191.956 29.5239Z" id="Shape" fill="#000000" fill-rule="evenodd" stroke="none" />
        <path d="M213.527 34.5742L213.527 22.1288C213.527 19.1979 215.451 17.0786 218.18 17.0786C220.774 17.0786 222.519 19.0626 222.519 21.8132L222.519 34.5742L228.784 34.5742L228.784 20.4154C228.784 15.1847 225.473 11.4872 220.372 11.4872C217.284 11.4872 214.779 12.7948 213.527 15.0043L213.527 11.8479L207.262 11.8479L207.262 34.5742L213.527 34.5742L213.527 34.5742Z" id="Shape" fill="#000000" stroke="none" />
      </g>
    </g>
  </g>
</svg>