<?xml version="1.0" encoding="utf-8"?>
<svg width="350px" height="100px" viewBox="0 0 350 100" version="1.1" xmlns:xlink="http://www.w3.org/1999/xlink" xmlns="http://www.w3.org/2000/svg">
  <defs>
    <path d="M0 0L244.106 0L244.106 172.602L0 172.602L0 0Z" id="path_1" />
    <rect width="350" height="100" id="artboard_1" />
    <clipPath id="clip_1">
      <use xlink:href="#artboard_1" clip-rule="evenodd" />
    </clipPath>
    <clipPath id="mask_1">
      <use xlink:href="#path_1" />
    </clipPath>
  </defs>
  <g id="Artboard-6" clip-path="url(#clip_1)">
    <use xlink:href="#artboard_1" stroke="none" fill="#FFFFFF" fill-opacity="0" />
    <g id="Rust-1" transform="translate(53.89377 -35.450317)" artboard="42121446-796b-443b-93bd-e11ecaa80fa1">
      <path d="M0 0L244.106 0L244.106 172.602L0 172.602L0 0Z" id="Background" fill="#FFFFFF" fill-opacity="0" fill-rule="evenodd" stroke="none" />
      <g clip-path="url(#mask_1)">
        <path d="M57.1231 52.9072C56.836 52.9304 56.549 52.9594 56.2648 52.9913L53.7452 50.2948C53.3421 49.8686 52.6695 49.8454 52.2432 50.2484C52.1244 50.3586 52.0345 50.4949 51.9765 50.6456L50.6833 54.0989C50.4078 54.1801 50.1324 54.2613 49.8598 54.3483L46.8589 52.1911C46.3833 51.8489 45.7222 51.9562 45.3801 52.4317C45.2844 52.5651 45.2206 52.7188 45.1945 52.8811L44.5972 56.5374C44.345 56.6679 44.0927 56.8042 43.8463 56.9404L40.4741 55.4037C40.335 55.3399 40.1871 55.308 40.0363 55.308C39.4477 55.3109 38.9722 55.7922 38.9751 56.3808C38.9751 56.3895 38.9751 56.3982 38.9751 56.4069L39.1056 60.1212C38.8881 60.2952 38.6736 60.472 38.4619 60.6518L34.8404 59.7994C34.2692 59.666 33.698 60.0255 33.5646 60.5967C33.5269 60.7533 33.5269 60.9186 33.5646 61.0751L34.4171 64.6966C34.2373 64.9083 34.0604 65.1257 33.8865 65.3403L30.1722 65.2098L30.1316 65.2098C29.5488 65.2127 29.0762 65.6853 29.0733 66.2681C29.0733 66.4218 29.1052 66.5697 29.169 66.7089L30.7057 70.081C30.5694 70.3275 30.4332 70.5797 30.3027 70.832L26.6464 71.4293C26.0665 71.5278 25.6751 72.0758 25.7737 72.6557C25.7998 72.8152 25.8636 72.9631 25.9563 73.0936L28.1136 76.0946C28.0266 76.37 27.9425 76.6426 27.8642 76.918L24.4109 78.2112C23.8629 78.4171 23.5845 79.0289 23.7904 79.5798C23.8484 79.7305 23.9383 79.8697 24.0572 79.9799L26.7537 82.4996C26.7218 82.7837 26.6928 83.0708 26.6696 83.3578L23.5324 85.3005C23.0336 85.6078 22.88 86.2631 23.1902 86.7618C23.2772 86.901 23.3932 87.0199 23.5324 87.104L26.6725 89.0466C26.6957 89.3337 26.7247 89.6208 26.7566 89.9049L24.0601 92.4246C23.6309 92.8218 23.6077 93.4916 24.005 93.9207C24.1181 94.0425 24.2572 94.1353 24.4138 94.1933L27.8671 95.4864C27.9483 95.7619 28.0295 96.0373 28.1165 96.3099L25.9592 99.3109C25.6171 99.7835 25.7215 100.447 26.197 100.79C26.3304 100.885 26.4869 100.952 26.6493 100.978L30.3056 101.575C30.4361 101.828 30.5723 102.077 30.7086 102.323L29.1719 105.698C28.9283 106.232 29.1632 106.861 29.6967 107.102C29.8359 107.166 29.9866 107.198 30.1374 107.198L30.1751 107.198L33.8923 107.067C34.0662 107.285 34.2431 107.499 34.42 107.711L33.5675 111.332C33.4342 111.903 33.7937 112.475 34.3649 112.608C34.5215 112.646 34.6867 112.646 34.8433 112.608L38.4677 111.756C38.6793 111.935 38.8939 112.109 39.1085 112.283L38.978 116L38.978 116.041C38.9809 116.624 39.4535 117.096 40.0363 117.099C40.19 117.099 40.3408 117.067 40.477 117.004L43.8521 115.467C44.1014 115.606 44.3508 115.739 44.603 115.87L45.2003 119.526C45.296 120.106 45.844 120.498 46.4239 120.399C46.5834 120.373 46.7342 120.309 46.8675 120.216L49.8685 118.059C50.1411 118.146 50.4165 118.23 50.692 118.308L51.9852 121.762C52.191 122.31 52.8028 122.588 53.3508 122.382C53.5045 122.324 53.6408 122.234 53.7539 122.113L56.2735 119.416C56.5577 119.448 56.8447 119.477 57.1318 119.5L59.0745 122.637C59.3818 123.136 60.0342 123.29 60.5329 122.982C60.6721 122.895 60.791 122.777 60.878 122.637L62.8206 119.5C63.1077 119.477 63.3947 119.448 63.6789 119.416L66.1985 122.113C66.4479 122.379 66.819 122.501 67.1815 122.429C67.541 122.356 67.8397 122.104 67.9672 121.762L69.2604 118.308C69.5359 118.227 69.8113 118.146 70.0839 118.059L73.0849 120.216C73.5604 120.558 74.2244 120.448 74.5665 119.97C74.6622 119.836 74.7231 119.686 74.7521 119.523L75.3494 115.867C75.6016 115.737 75.851 115.6 76.0975 115.464L79.4725 117.001C79.6117 117.065 79.7624 117.096 79.9132 117.096C80.4931 117.096 80.9715 116.618 80.9715 116.038L80.9715 116L80.841 112.283C81.0585 112.109 81.2731 111.935 81.4847 111.756L85.1062 112.608C85.6774 112.741 86.2486 112.382 86.382 111.811C86.4197 111.654 86.4197 111.489 86.382 111.332L85.5295 107.711C85.7093 107.499 85.8833 107.285 86.0572 107.067L89.7744 107.198L89.8121 107.198C90.3949 107.198 90.8733 106.719 90.8733 106.136C90.8733 105.983 90.8414 105.835 90.7776 105.696L89.2409 102.321C89.3801 102.074 89.5135 101.822 89.6439 101.573L93.3002 100.975C93.8801 100.88 94.2715 100.334 94.1758 99.7545C94.1498 99.595 94.086 99.4414 93.9903 99.308L91.833 96.307C91.92 96.0344 92.0041 95.759 92.0824 95.4835L95.5357 94.1904C96.0837 93.9874 96.3621 93.3785 96.1591 92.8305C96.1011 92.6739 96.0083 92.5348 95.8866 92.4217L93.19 89.902C93.2219 89.6149 93.2509 89.3308 93.2741 89.0437L96.4114 87.1011C96.9101 86.7908 97.0638 86.1384 96.7535 85.6397C96.6665 85.5005 96.5505 85.3846 96.4114 85.2976L93.2741 83.3549C93.2509 83.0679 93.2219 82.7808 93.19 82.4967L95.8866 79.977C96.3157 79.5769 96.336 78.9042 95.9358 78.4751C95.8257 78.3562 95.6894 78.2663 95.5357 78.2083L92.0824 76.9151C92.0012 76.6397 91.92 76.3642 91.833 76.0917L93.9903 73.0907C94.3324 72.6152 94.2222 71.9512 93.7467 71.609C93.6133 71.5134 93.4597 71.4496 93.3002 71.4235L89.6439 70.8262C89.5135 70.5739 89.3772 70.3246 89.2409 70.0752L90.7776 66.7002C90.8414 66.561 90.8733 66.4102 90.8733 66.2594C90.8733 65.6767 90.3949 65.2011 89.815 65.2011L89.7773 65.2011L86.0601 65.3316C85.8862 65.1141 85.7122 64.9025 85.5324 64.6908L86.3849 61.0664C86.5154 60.4923 86.1587 59.924 85.5846 59.7907C85.428 59.7559 85.2657 59.7559 85.1091 59.7907L81.476 60.6518C81.2644 60.472 81.0498 60.2981 80.8323 60.1241L80.9628 56.4069L80.9628 56.3692C80.9628 55.7864 80.4844 55.308 79.9016 55.308C79.7508 55.308 79.6001 55.3399 79.4609 55.4037L76.0858 56.9404C75.8365 56.8042 75.5871 56.6679 75.3378 56.5374L74.7405 52.8811C74.6448 52.3041 74.0997 51.9098 73.5227 52.0055C73.3603 52.0316 73.2095 52.0954 73.0762 52.1911L70.0752 54.3483C69.8026 54.2613 69.5272 54.1772 69.2517 54.0989L67.9585 50.6456C67.7556 50.0976 67.1467 49.8193 66.5987 50.0222C66.445 50.0802 66.3058 50.173 66.1927 50.2919L63.6731 52.9884C63.386 52.9565 63.1019 52.9275 62.8148 52.9043L60.8722 49.7642C60.5648 49.2655 59.9124 49.1118 59.4137 49.4191C59.2745 49.5061 59.1557 49.625 59.0687 49.7642C59.0658 49.7671 57.1231 52.9072 57.1231 52.9072L57.1231 52.9072ZM53.838 88.6987L60.8316 88.6987C61.4666 88.6987 64.2472 88.8814 65.1286 92.4304C65.4041 93.5177 66.0188 97.0667 66.4363 98.2062C66.8538 99.4791 68.5442 102.025 70.3448 102.025L81.7544 102.025C80.9889 103.048 80.1539 104.017 79.2521 104.924L74.6071 103.927C73.5256 103.701 72.4615 104.388 72.2237 105.467L71.1219 110.613C63.9456 113.861 55.7081 113.82 48.5638 110.506L47.4619 105.359C47.23 104.281 46.1659 103.591 45.0873 103.82L40.5408 104.794C39.6971 103.924 38.9142 102.999 38.1922 102.022L60.298 102.022C60.5445 102.022 60.7156 101.978 60.7156 101.746L60.7156 93.9294C60.7156 93.7033 60.5445 93.654 60.298 93.654L53.8293 93.654C53.8322 93.654 53.838 88.6987 53.838 88.6987L53.838 88.6987ZM76.1931 106.705C77.379 106.748 78.3185 107.717 78.3272 108.902C78.3272 110.109 77.3355 111.1 76.1293 111.1C74.9202 111.089 73.9431 110.111 73.9315 108.902L73.9315 108.902C73.9431 107.693 74.9202 106.713 76.1293 106.705C76.1293 106.705 76.1931 106.705 76.1931 106.705L76.1931 106.705ZM43.6375 106.606C44.8234 106.65 45.7629 107.618 45.7715 108.804C45.76 110.013 44.7828 110.99 43.5737 111.002C42.3646 110.99 41.3875 110.013 41.3759 108.804L41.3759 108.804C41.3875 107.595 42.3646 106.615 43.5737 106.606C43.5737 106.606 43.6375 106.606 43.6375 106.606L43.6375 106.606ZM214.929 70.8784L205.189 70.8784L205.189 72.9457C205.189 74.9203 204.134 76.3004 201.698 76.3004L201.698 83.8333L203.719 83.8333L203.719 92.1462C203.719 99.9546 207.303 102.483 213.502 102.483C217.959 102.483 221.403 101.106 221.403 101.106L221.403 93.8946C221.403 93.8946 219.289 94.3092 217.59 94.3092C215.845 94.3092 214.926 93.4365 214.926 91.3691L214.926 83.8362L221.128 83.8362L221.128 76.3033L214.926 76.3033L214.929 70.8784L214.929 70.8784L214.929 70.8784ZM178.592 101.059C178.592 101.059 182.68 102.483 189.662 102.483C197.61 102.483 201.24 99.1282 201.24 93.6627C201.24 88.3334 197.932 85.7615 190.857 85.0279C188.01 84.7525 187.366 84.4306 187.366 83.6971C187.366 82.9635 188.421 82.5953 190.903 82.5953C194.67 82.5953 199.631 83.239 199.631 83.239L199.631 77.0369C199.631 77.0369 196.004 75.6596 188.975 75.6596C180.616 75.6596 177.261 79.2869 177.261 84.0653C177.261 89.209 181.12 91.9201 187.505 92.7928C190.399 93.2074 191.042 93.4829 191.042 94.3092C191.042 95.0428 190.445 95.5038 187.734 95.5038C184.336 95.5038 178.592 94.6775 178.592 94.6775L178.592 101.059L178.592 101.059ZM158.612 76.3004L146.025 76.3004L146.025 83.8333L148.046 83.8333L148.046 91.3663C148.046 99.0383 151.169 102.483 156.176 102.483C160.311 102.483 162.468 100.187 163.938 98.7165L163.938 101.839L176.525 101.839L176.525 94.3064L174.504 94.3064L174.504 76.3004L161.459 76.3004L161.459 83.8333L163.938 83.8333L163.938 91.3663C163.938 93.4336 163.019 94.3064 161.273 94.3064C159.528 94.3064 158.609 93.4336 158.609 91.3663L158.612 76.3004L158.612 76.3004L158.612 76.3004ZM126.502 86.7734C130.315 86.7734 131.878 87.3707 131.878 91.0444L131.878 101.839L146.439 101.839L146.439 94.3064L144.282 94.3064L144.282 90.769C144.282 87.5534 142.812 85.8079 139.872 85.3498L139.826 84.8917C142.948 83.6971 144.604 80.4815 144.604 76.4396C144.604 68.8603 139.965 66.1029 132.432 66.1029L110.889 66.1029L110.889 73.6358L113.643 73.6358L113.643 94.3064L110.889 94.3064L110.889 101.839L129.538 101.839L129.538 94.3064L126.505 94.3064C126.502 94.3064 126.502 86.7734 126.502 86.7734L126.502 86.7734ZM64.9518 59.376C72.763 60.8432 79.5334 65.665 83.4738 72.5688L80.8787 78.4229C80.4409 79.4377 80.8932 80.6149 81.8964 81.073L86.8865 83.2853C87.0402 84.8453 87.0605 86.4168 86.9416 87.9796L84.1639 87.9796C83.8884 87.9796 83.7753 88.1623 83.7753 88.4319L83.7753 89.7048C83.7753 92.7029 82.0849 93.3611 80.6004 93.5235C79.1854 93.6859 77.6226 92.9291 77.4254 92.0679C76.5903 87.3794 75.2044 86.382 73.0124 84.651C75.735 82.9258 78.562 80.3742 78.562 76.9673C78.562 73.285 76.0394 70.9654 74.32 69.8288C71.9019 68.2369 69.2285 67.9209 68.5094 67.9209L39.8073 67.9209C43.7767 63.4875 49.0973 60.4865 54.9427 59.3818L58.3293 62.9308C59.0889 63.7282 60.3502 63.7601 61.1476 63.0033C61.1505 63.0004 61.1534 62.9975 61.1563 62.9946C61.1621 62.9888 64.9518 59.376 64.9518 59.376L64.9518 59.376ZM37.8472 76.1004L41.6804 76.1004L41.6804 93.3785L33.9474 93.3785C32.9934 90.0238 32.6948 86.5183 33.0717 83.0505L37.8095 80.9425C38.8185 80.4931 39.2738 79.3101 38.8272 78.2982C38.8243 78.3011 37.8472 76.1004 37.8472 76.1004L37.8472 76.1004ZM53.838 76.286L62.9656 76.286C63.4382 76.286 66.2971 76.8311 66.2971 78.9709C66.2971 80.7454 64.1051 81.3804 62.3016 81.3804L53.8322 81.3804L53.838 76.286L53.838 76.286ZM126.502 81.1687L126.502 73.6358L128.981 73.6358C130.727 73.6358 131.646 74.5085 131.646 76.5759L131.646 78.2286C131.646 80.296 130.727 81.1687 128.981 81.1687L126.502 81.1687L126.502 81.1687ZM86.1239 75.7495C87.3098 75.793 88.2493 76.7615 88.258 77.9473C88.2464 79.1564 87.2692 80.1336 86.0601 80.1452C84.851 80.1336 83.8739 79.1564 83.8623 77.9473L83.8623 77.9473C83.8739 76.7354 84.8568 75.7553 86.0717 75.7495L86.1239 75.7495L86.1239 75.7495ZM33.7038 75.648C34.8897 75.6915 35.8291 76.66 35.8378 77.8459C35.8262 79.0549 34.8491 80.0321 33.64 80.0437C32.4309 80.0321 31.4538 79.0549 31.4422 77.8459L31.4422 77.8459C31.4538 76.6368 32.4309 75.6567 33.64 75.648L33.7038 75.648L33.7038 75.648ZM59.9182 55.7546C61.1041 55.7981 62.0464 56.7665 62.0522 57.9524C62.0522 59.1586 61.0606 60.1502 59.8544 60.1502C58.6453 60.1386 57.6682 59.1615 57.6566 57.9524L57.6566 57.9495C57.6566 56.7433 58.6482 55.7517 59.8544 55.7517C59.8544 55.7546 59.9182 55.7546 59.9182 55.7546L59.9182 55.7546Z" id="Group" fill="#010202" fill-rule="evenodd" stroke="none" />
      </g>
    </g>
  </g>
</svg>