<?xml version="1.0" encoding="utf-8"?>
<svg width="350px" height="100px" viewBox="0 0 350 100" version="1.1" xmlns:xlink="http://www.w3.org/1999/xlink" xmlns="http://www.w3.org/2000/svg">
  <defs>
    <path d="M0 0L253.75 0L253.75 35.129L0 35.129L0 0Z" id="path_1" />
    <rect width="350" height="100" id="artboard_1" />
    <clipPath id="clip_1">
      <use xlink:href="#artboard_1" clip-rule="evenodd" />
    </clipPath>
    <clipPath id="mask_1">
      <use xlink:href="#path_1" />
    </clipPath>
  </defs>
  <g id="Artboard-2" clip-path="url(#clip_1)">
    <use xlink:href="#artboard_1" stroke="none" fill="#FFFFFF" fill-opacity="0" />
    <g id="substrate-logo-light" transform="translate(48.999985 33.00003)" artboard="60ea6119-c63a-4770-b3dc-cf73398e124e">
      <path d="M0 0L253.75 0L253.75 35.129L0 35.129L0 0Z" id="Background" fill="#FFFFFF" fill-opacity="0" fill-rule="evenodd" stroke="none" />
      <g clip-path="url(#mask_1)">
        <path d="M17.1262 9.92632C18.9771 11.4741 20.2071 13.6379 20.5902 16.02L13.626 16.02C13.4625 15.103 12.9756 14.2751 12.2538 13.6865C11.485 13.1046 10.5392 12.8057 9.5757 12.8401C8.893 12.7923 8.21506 12.9848 7.65935 13.3842C7.21291 13.7705 6.9716 14.3425 7.00646 14.9318C7.0137 15.6941 7.49682 16.3704 8.21552 16.6245C9.42839 17.1321 10.6905 17.513 11.9817 17.761C13.5313 18.1065 15.0577 18.5486 16.5519 19.0849C17.7517 19.5443 18.8148 20.3016 19.6411 21.2854C20.5612 22.4486 21.0217 23.9095 20.9348 25.3901C20.957 26.7116 20.5613 28.0064 19.8043 29.0898C18.9733 30.2188 17.8423 31.0922 16.5398 31.6107C14.9338 32.2508 13.2143 32.5573 11.486 32.5114C8.20141 32.5114 5.5818 31.786 3.62716 30.3351C1.62056 28.8429 0.310368 26.5959 0 24.1146L7.18178 24.1146C7.23831 25.0798 7.72687 25.968 8.51173 26.5327C9.39362 27.1075 10.4346 27.3889 11.486 27.3367C12.1779 27.3817 12.8615 27.166 13.4024 26.7322C13.8383 26.3409 14.0775 25.776 14.0552 25.1906C14.0851 24.3887 13.5979 23.6579 12.8462 23.377C11.5851 22.8719 10.2798 22.4854 8.94699 22.2224C7.43999 21.9299 5.95683 21.5258 4.50976 21.0133C3.33823 20.5774 2.2977 19.8491 1.48713 18.8975C0.608701 17.7692 0.172329 16.359 0.259947 14.9318C0.213547 12.8852 1.13421 10.9364 2.74455 9.67242C4.39289 8.32634 6.72838 7.65129 9.75101 7.64726C12.7736 7.64323 15.2321 8.40292 17.1262 9.92632L17.1262 9.92632Z" id="Shape" fill="#000000" stroke="none" />
        <path d="M49.7949 7.9193L49.7949 32.2092L42.3169 32.2092L42.3169 27.8082C41.6313 29.2176 40.5493 30.3962 39.2036 31.1996C37.752 32.0637 36.0864 32.5016 34.3976 32.4631C31.6127 32.4631 29.3961 31.5341 27.7478 29.6762C26.0994 27.8183 25.2793 25.2672 25.2874 22.0229L25.2874 7.9193L32.6868 7.9193L32.6868 21.1101C32.5985 22.5123 33.0604 23.8938 33.9744 24.9609C34.8759 25.8946 36.1359 26.3946 37.4323 26.3332C38.7751 26.4024 40.0801 25.8759 40.999 24.8944C41.8695 23.9393 42.3169 22.573 42.3169 20.8078L42.3169 7.9193L49.7949 7.9193Z" id="Shape" fill="#000000" stroke="none" />
        <path d="M76.4061 9.11626C78.0344 10.1737 79.3331 11.6672 80.1542 13.4265C81.1116 15.5096 81.579 17.7845 81.5204 20.0763C81.5779 22.3681 81.1106 24.6427 80.1542 26.7261C79.3387 28.4939 78.0392 29.9947 76.4061 31.0545C74.7977 32.0641 72.9307 32.585 71.0319 32.5537C69.3485 32.6009 67.687 32.1646 66.244 31.2963C64.9287 30.4706 63.9086 29.2495 63.3302 27.8082L63.3302 32.2031L55.8885 32.2031L55.8885 0L63.3302 0L63.3302 12.3202C63.9155 10.8957 64.9351 9.69205 66.244 8.88049C67.6863 8.01016 69.3479 7.57168 71.0319 7.61703C72.9303 7.58857 74.7965 8.10919 76.4061 9.11626L76.4061 9.11626ZM64.7871 15.7177C63.7389 16.908 63.2005 18.4625 63.2879 20.0461C63.2053 21.6236 63.7434 23.1707 64.7871 24.3564C65.8021 25.3846 67.1844 25.9668 68.6292 25.9748C70.0739 25.9827 71.4625 25.4157 72.4888 24.3987C73.5208 23.1915 74.0452 21.6315 73.9517 20.0461C74.0452 18.4607 73.5208 16.9007 72.4888 15.6935C71.4933 14.6374 70.088 14.066 68.6379 14.1278C67.1859 14.0818 65.7838 14.6607 64.7871 15.7177L64.7871 15.7177Z" id="Shape" fill="#000000" fill-rule="evenodd" stroke="none" />
        <path d="M101.869 9.92632C103.72 11.4741 104.95 13.6379 105.333 16.02L98.3686 16.02C98.2076 15.1021 97.7202 14.2733 96.9963 13.6865C96.2276 13.1046 95.2817 12.8057 94.3182 12.8401C93.6355 12.7923 92.9576 12.9848 92.4019 13.3842C91.9554 13.7705 91.7141 14.3425 91.749 14.9318C91.7562 15.6941 92.2393 16.3704 92.958 16.6245C94.1709 17.1321 95.433 17.513 96.7243 17.761C98.2738 18.1065 99.8002 18.5486 101.294 19.0849C102.494 19.5443 103.557 20.3016 104.384 21.2854C105.304 22.4486 105.764 23.9095 105.677 25.3901C105.699 26.7116 105.304 28.0064 104.547 29.0898C103.716 30.2188 102.585 31.0922 101.282 31.6107C99.6794 32.2553 97.9618 32.5659 96.2346 32.5235C92.958 32.5235 90.3384 31.7981 88.3757 30.3472C86.3691 28.855 85.0589 26.608 84.7486 24.1266L91.9304 24.1266C91.9894 25.0911 92.4774 25.9784 93.2603 26.5448C94.141 27.1293 95.1846 27.4193 96.2406 27.373C96.9325 27.4179 97.6161 27.2023 98.157 26.7684C98.5929 26.3771 98.8321 25.8122 98.8099 25.2269C98.8398 24.425 98.3525 23.6941 97.6008 23.4133C96.3404 22.902 95.035 22.5094 93.7016 22.2405C92.1946 21.948 90.7114 21.5439 89.2644 21.0315C88.0928 20.5956 87.0523 19.8672 86.2418 18.9156C85.3475 17.7893 84.8979 16.3738 84.9783 14.9378C84.9357 12.885 85.8659 10.9327 87.487 9.67244C89.1354 8.32635 91.4709 7.65129 94.4935 7.64726C97.5162 7.64323 99.9746 8.40292 101.869 9.92632L101.869 9.92632Z" id="Shape" fill="#000000" stroke="none" />
        <path d="M124.176 25.8133L124.176 32.2092L120.827 32.2092C117.985 32.2092 115.767 31.5079 114.177 30.0994C112.587 28.6908 111.837 26.3634 111.837 23.111L111.837 14.1882L108.579 14.1882L108.579 7.9193L111.837 7.9193L111.837 1.95867L119.285 1.95867L119.285 7.9193L124.158 7.9193L124.158 14.1882L119.285 14.1882L119.285 23.2561C119.212 23.977 119.43 24.6973 119.89 25.2571C120.455 25.6899 121.164 25.8928 121.873 25.8254L124.176 25.8133Z" id="Shape" fill="#000000" stroke="none" />
        <path d="M140.782 8.96513C142.22 8.10152 143.868 7.64981 145.546 7.65935L145.546 15.627L143.418 15.627C141.441 15.627 139.912 16.0441 138.823 16.8905C137.735 17.7368 137.191 19.1514 137.191 21.1524L137.191 32.2092L129.75 32.2092L129.75 7.9193L137.191 7.9193L137.191 12.4895C138.089 11.0447 139.321 9.83612 140.782 8.96512L140.782 8.96513Z" id="Shape" fill="#000000" stroke="none" />
        <path d="M162.787 8.88049C164.1 9.69882 165.131 10.8991 165.743 12.3202L165.743 7.91929L173.142 7.91929L173.142 32.2092L165.743 32.2092L165.743 27.8082C165.13 29.2284 164.099 30.4282 162.787 31.248C161.344 32.1162 159.682 32.5526 157.999 32.5054C156.098 32.5367 154.229 32.0159 152.619 31.0062C150.987 29.9467 149.689 28.4457 148.877 26.6777C147.918 24.5948 147.449 22.3202 147.504 20.028C147.448 17.7356 147.917 15.4608 148.877 13.3782C149.696 11.6192 150.992 10.1257 152.619 9.06789C154.231 8.06097 156.099 7.54042 157.999 7.56866C159.688 7.53784 161.35 7.9932 162.787 8.88049L162.787 8.88049ZM156.536 15.7177C155.508 16.927 154.987 18.486 155.079 20.0703C154.987 21.6546 155.508 23.2135 156.536 24.4229C158.681 26.5282 162.122 26.5093 164.244 24.3805C165.284 23.1929 165.822 21.6472 165.743 20.0703C165.837 18.4785 165.298 16.914 164.244 15.7177C163.247 14.6607 161.845 14.0818 160.393 14.1278C158.938 14.0737 157.531 14.6537 156.536 15.7177L156.536 15.7177Z" id="Shape" fill="#000000" fill-rule="evenodd" stroke="none" />
        <path d="M192.729 25.8133L192.729 32.2092L189.38 32.2092C186.535 32.2092 184.318 31.5059 182.73 30.0994C181.142 28.6928 180.35 26.3634 180.354 23.111L180.354 14.1882L177.126 14.1882L177.126 7.9193L180.391 7.9193L180.391 1.95867L187.839 1.95867L187.839 7.9193L192.711 7.9193L192.711 14.1882L187.839 14.1882L187.839 23.2561C187.765 23.977 187.983 24.6973 188.443 25.2571C189.007 25.6889 189.713 25.8919 190.42 25.8254L192.729 25.8133Z" id="Shape" fill="#000000" stroke="none" />
        <path d="M220.193 21.4123L203.351 21.4123C203.435 23.2461 203.899 24.5599 204.741 25.3538C205.612 26.1687 206.771 26.6036 207.963 26.5629C208.945 26.599 209.91 26.3077 210.708 25.7347C211.421 25.2027 211.927 24.44 212.14 23.5765L219.999 23.5765C219.697 25.2575 218.98 26.8366 217.914 28.1709C216.817 29.5361 215.415 30.6251 213.821 31.3507C210.011 32.997 205.667 32.8686 201.96 31.0001C200.146 30.0056 198.659 28.5063 197.68 26.6838C196.592 24.6397 196.05 22.349 196.108 20.034C196.051 17.7219 196.583 15.4332 197.656 13.3842C198.645 11.5544 200.15 10.0556 201.984 9.07394C205.984 7.0931 210.68 7.0931 214.679 9.07395C216.46 10.0219 217.93 11.4641 218.911 13.227C219.935 15.1163 220.452 17.2387 220.41 19.3872C220.405 20.0677 220.332 20.7461 220.193 21.4123L220.193 21.4123ZM211.584 14.69C210.686 13.881 209.51 13.4482 208.302 13.481C207.056 13.4309 205.839 13.864 204.904 14.69C203.945 15.6309 203.397 16.9132 203.381 18.2567L212.872 18.2567C212.908 16.6849 212.485 15.488 211.584 14.69L211.584 14.69Z" id="Shape" fill="#000000" fill-rule="evenodd" stroke="none" />
        <path d="M253.75 27.8626L253.75 35.1169L226.812 35.1169L226.812 27.8626L253.75 27.8626Z" id="Shape" fill="#18FFB2" stroke="none" />
      </g>
    </g>
  </g>
</svg>