<?xml version="1.0" encoding="utf-8"?>
<svg width="350px" height="100px" viewBox="0 0 350 100" version="1.1" xmlns:xlink="http://www.w3.org/1999/xlink" xmlns="http://www.w3.org/2000/svg">
  <defs>
    <linearGradient gradientUnits="userSpaceOnUse" x1="26.400002" y1="0" x2="26.400002" y2="52.80001" id="gradient_1">
      <stop offset="0%" stop-color="#00BB00" />
      <stop offset="100%" stop-color="#00BB00" />
    </linearGradient>
    <path d="M0 0L264 0L264 88L0 88L0 0Z" id="path_1" />
    <rect width="350" height="100" id="artboard_1" />
    <clipPath id="clip_1">
      <use xlink:href="#artboard_1" clip-rule="evenodd" />
    </clipPath>
    <clipPath id="mask_1">
      <use xlink:href="#path_1" />
    </clipPath>
  </defs>
  <g id="Artboard-4" clip-path="url(#clip_1)">
    <use xlink:href="#artboard_1" stroke="none" fill="#FFFFFF" fill-opacity="0" />
    <g id="tendermint-logo-black" transform="translate(43.00003 5.9999695)" artboard="b2bb40ac-e4b6-4562-b64c-d58087ecdf8a">
      <path d="M0 0L264 0L264 88L0 88L0 0Z" id="Background" fill="#FFFFFF" fill-opacity="0" fill-rule="evenodd" stroke="none" />
      <g clip-path="url(#mask_1)">
        <path d="M87.4685 55.44L91.3651 55.44L91.3651 36.8755L98.4298 36.8755L98.4298 33.264L80.4038 33.264L80.4038 36.8755L87.4685 36.8755L87.4685 55.44ZM104.551 55.8202C107.624 55.8202 109.81 54.5847 111.394 52.6839L109.145 50.688C107.814 51.9869 106.484 52.6839 104.614 52.6839C102.143 52.6839 100.211 51.1632 99.799 48.4387L112.091 48.4387C112.123 48.0586 112.154 47.7101 112.154 47.3616C112.154 42.5463 109.461 38.3645 104.139 38.3645C99.3555 38.3645 95.9658 42.2928 95.9658 47.0765L95.9658 47.1399C95.9658 52.3037 99.704 55.8202 104.551 55.8202L104.551 55.8202ZM99.7674 45.9043C100.116 43.3066 101.763 41.5008 104.108 41.5008C106.642 41.5008 108.099 43.4333 108.353 45.9043L99.7674 45.9043ZM114.388 55.44L118.253 55.44L118.253 45.9994C118.253 43.4016 119.805 41.8493 122.023 41.8493C124.304 41.8493 125.603 43.3383 125.603 45.936L125.603 55.44L129.436 55.44L129.436 44.7639C129.436 40.8989 127.25 38.3645 123.48 38.3645C120.883 38.3645 119.33 39.7267 118.253 41.2791L118.253 38.713L114.388 38.713L114.388 55.44ZM139.388 55.7885C142.112 55.7885 143.854 54.3946 145.09 52.6522L145.09 55.44L148.923 55.44L148.923 32.3136L145.09 32.3136L145.09 41.3107C143.886 39.7267 142.144 38.3645 139.388 38.3645C135.396 38.3645 131.626 41.5008 131.626 47.0448L131.626 47.1082C131.626 52.6522 135.459 55.7885 139.388 55.7885L139.388 55.7885ZM140.306 52.4621C137.709 52.4621 135.491 50.3395 135.491 47.1082L135.491 47.0448C135.491 43.7501 137.677 41.6909 140.306 41.6909C142.872 41.6909 145.153 43.8135 145.153 47.0448L145.153 47.1082C145.153 50.3079 142.872 52.4621 140.306 52.4621L140.306 52.4621ZM159.818 55.8202C162.891 55.8202 165.077 54.5847 166.661 52.6839L164.412 50.688C163.081 51.9869 161.751 52.6839 159.882 52.6839C157.41 52.6839 155.478 51.1632 155.066 48.4387L167.358 48.4387C167.39 48.0586 167.421 47.7101 167.421 47.3616C167.421 42.5463 164.729 38.3645 159.406 38.3645C154.623 38.3645 151.233 42.2928 151.233 47.0765L151.233 47.1399C151.233 52.3037 154.971 55.8202 159.818 55.8202L159.818 55.8202ZM155.034 45.9043C155.383 43.3066 157.03 41.5008 159.375 41.5008C161.909 41.5008 163.366 43.4333 163.62 45.9043L155.034 45.9043ZM169.655 55.44L173.52 55.44L173.52 49.0723C173.52 44.6371 175.865 42.4512 179.223 42.4512L179.444 42.4512L179.444 38.3962C176.498 38.2694 174.566 39.9802 173.52 42.4829L173.52 38.713L169.655 38.713L169.655 55.44ZM181.158 55.44L185.023 55.44L185.023 45.9994C185.023 43.4333 186.48 41.8493 188.602 41.8493C190.725 41.8493 191.992 43.3066 191.992 45.9043L191.992 55.44L195.826 55.44L195.826 45.9994C195.826 43.3066 197.314 41.8493 199.405 41.8493C201.56 41.8493 202.795 43.2749 202.795 45.936L202.795 55.44L206.628 55.44L206.628 44.7639C206.628 40.6771 204.411 38.3645 200.768 38.3645C198.233 38.3645 196.459 39.5367 195.129 41.3107C194.242 39.5367 192.531 38.3645 190.123 38.3645C187.557 38.3645 186.1 39.7584 185.023 41.2474L185.023 38.713L181.158 38.713L181.158 55.44ZM209.74 36.1469L213.858 36.1469L213.858 32.5037L209.74 32.5037L209.74 36.1469ZM209.867 55.44L213.732 55.44L213.732 38.713L209.867 38.713L209.867 55.44ZM217.125 55.44L220.99 55.44L220.99 45.9994C220.99 43.4016 222.543 41.8493 224.76 41.8493C227.041 41.8493 228.34 43.3383 228.34 45.936L228.34 55.44L232.173 55.44L232.173 44.7639C232.173 40.8989 229.988 38.3645 226.218 38.3645C223.62 38.3645 222.068 39.7267 220.99 41.2791L220.99 38.713L217.125 38.713L217.125 55.44ZM240.826 55.7251C242.283 55.7251 243.329 55.4083 244.279 54.8698L244.279 51.7334C243.519 52.1136 242.759 52.3037 241.903 52.3037C240.604 52.3037 239.844 51.7018 239.844 50.2128L239.844 42.0077L244.343 42.0077L244.343 38.713L239.844 38.713L239.844 34.1194L236.011 34.1194L236.011 38.713L233.888 38.713L233.888 42.0077L236.011 42.0077L236.011 50.8147C236.011 54.4896 238.007 55.7251 240.826 55.7251L240.826 55.7251Z" id="Shape" fill="#000000" fill-rule="evenodd" stroke="none" />
        <path d="M17.6 44C17.6 29.4197 29.4197 17.6 44 17.6C58.5803 17.6 70.4 29.4197 70.4 44C70.4 58.5803 58.5803 70.4 44 70.4C29.4197 70.4 17.6 58.5803 17.6 44Z" id="Circle" fill="url(#gradient_1)" fill-rule="evenodd" stroke="none" />
        <path d="M49.6258 38.2341C47.857 37.5367 45.9518 37.1724 44.0277 37.1724C39.9836 37.1724 36.1797 38.7601 33.3168 41.6429C30.4664 44.513 28.8827 48.3256 28.8572 52.378L28.8538 52.9223L29.3267 53.1911C31.6058 54.4878 34.1831 55.1703 36.7948 55.1703C36.8666 55.1703 36.939 55.1698 37.011 55.1685C39.2876 55.1359 41.5399 54.5886 43.5817 53.5779C42.9379 53.218 42.3209 52.8123 41.7344 52.3653C38.1753 53.7671 34.1418 53.5946 30.7282 51.8381C31.0603 44.7269 36.9153 39.0301 44.0277 39.0301C46.006 39.0301 47.9596 39.4677 49.7244 40.2992C49.7473 39.6108 49.7143 38.9207 49.6258 38.2341L49.6258 38.2341ZM59.198 52.2517C59.1439 47.2133 56.6905 42.6165 52.6007 39.8162C52.6038 40.5536 52.5545 41.2904 52.4533 42.0229C55.359 44.3955 57.1309 47.8896 57.3245 51.7176C51.0558 54.9481 43.2382 52.6856 39.6771 46.5133C38.7153 44.8461 38.1255 42.9818 37.9522 41.077C37.3472 41.4069 36.7694 41.7865 36.2238 42.2121C36.5115 44.0453 37.1366 45.8251 38.0694 47.4421C40.0951 50.9533 43.3519 53.4706 47.2393 54.5301C48.5584 54.8895 49.8995 55.0677 51.2332 55.0677C53.8318 55.0677 56.4023 54.3923 58.7286 53.0693L59.2038 52.7991L59.198 52.2517ZM44.5641 26.675L44.095 26.4L43.626 26.6746C41.309 28.0306 39.384 29.9747 38.059 32.2966C36.9149 34.3019 36.2382 36.5481 36.0795 38.841C36.7138 38.464 37.3746 38.1325 38.0578 37.8492C38.6463 34.0694 40.8444 30.6534 44.0942 28.5659C50.0628 32.4036 52.0256 40.3608 48.4405 46.5749C47.4698 48.2579 46.1419 49.713 44.5694 50.8301C45.1568 51.1883 45.7736 51.4994 46.4147 51.7594C47.8685 50.5806 49.1062 49.1366 50.0482 47.5037C54.234 40.2485 51.7739 30.9048 44.5641 26.675L44.5641 26.675ZM44.0858 42.5285C43.2306 42.5285 42.535 43.2247 42.535 44.0805C42.535 44.9359 43.2306 45.632 44.0858 45.632C44.9407 45.632 45.6364 44.9359 45.6364 44.0805C45.6364 43.2247 44.9407 42.5285 44.0858 42.5285L44.0858 42.5285ZM44.0858 47.4901C42.207 47.4901 40.6787 45.9606 40.6787 44.0805C40.6787 42.2003 42.207 40.6708 44.0858 40.6708C45.9646 40.6708 47.4927 42.2003 47.4927 44.0805C47.4927 45.9606 45.9646 47.4901 44.0858 47.4901L44.0858 47.4901Z" id="Group" fill="#FFFFFF" fill-rule="evenodd" stroke="none" />
      </g>
    </g>
  </g>
</svg>